<?xml version="1.0" standalone="no"?><!DOCTYPE svg PUBLIC "-//W3C//DTD SVG 1.1//EN" "http://www.w3.org/Graphics/SVG/1.1/DTD/svg11.dtd"><svg class="icon" style="" viewBox="0 0 1024 1024" version="1.1" xmlns="http://www.w3.org/2000/svg" p-id="1501" xmlns:xlink="http://www.w3.org/1999/xlink" width="200" height="200"><defs><style type="text/css"><![CDATA[

]]></style></defs><path d="M512.273223 988.613048c-264.658705 0-479.976656-215.31795-479.976656-479.976656S247.613494 28.659737 512.273223 28.659737s479.976656 215.31795 479.976656 479.976656S776.931928 988.613048 512.273223 988.613048zM512.273223 92.656283c-229.379201 0-415.980109 186.600909-415.980109 415.980109s186.600909 415.980109 415.980109 415.980109 415.980109-186.600909 415.980109-415.980109S741.652424 92.656283 512.273223 92.656283z" p-id="1502"></path><path d="M553.59535 741.336222c0 10.749832-3.843538 20.342304-11.530614 28.795836-7.687076 8.452509-17.655102 12.671601-29.967522 12.671601-12.280698 0-22.248723-4.218068-29.9358-12.671601-7.687076-8.452509-11.530614-18.046005-11.530614-28.795836 0-10.749832 3.843538-20.358677 11.530614-28.795836 7.687076-8.452509 17.655102-12.68695 29.9358-12.68695 12.311397 0 22.280446 4.234441 29.967522 12.68695C549.751812 720.977545 553.59535 730.58639 553.59535 741.336222zM539.752064 630.747521l-55.279001 0L484.473063 234.470149l55.279001 0L539.752064 630.747521z" p-id="1503"></path></svg>